<svg xmlns="http://www.w3.org/2000/svg" width="92" height="92" viewBox="0 0 92 92">
  <defs>
    <style>
      .cls-bg {
        fill-opacity: 0.5;
      }

      .cls-2 {
        fill: #fff;
        fill-rule: evenodd;
      }
    </style>
  </defs>
  <circle class="cls-bg" cx="46" cy="46" r="46"/>
  <path id="_" data-name="ï€" class="cls-2" d="M69.864,60.4a3.9,3.9,0,0,0-1.125-2.732L56.928,45.858,68.739,34.047a3.88,3.88,0,0,0,0-5.464l-5.464-5.464a3.88,3.88,0,0,0-5.464,0L46,34.93,34.188,23.119a3.88,3.88,0,0,0-5.464,0L23.26,28.583a3.88,3.88,0,0,0,0,5.464L35.072,45.858,23.26,57.67a3.88,3.88,0,0,0,0,5.464L28.724,68.6a3.88,3.88,0,0,0,5.464,0L46,56.786,57.811,68.6a3.88,3.88,0,0,0,5.464,0l5.464-5.464A3.9,3.9,0,0,0,69.864,60.4Z"/>
</svg>
